   Curiosity S01E01 - Stephen Hawking Does God Exist? [UJ.rip]
===================================================================

General
Complete name                  : Curiosity S01E01 - Stephen Hawking- Does God Exist [UJ.rip].avi
Format                         : AVI
Format/Info                    : Audio Video Interleave
File size                      : 332 MiB
Duration                       : 43mn 38s
Overall bit rate               : 1 063 Kbps
Writing application            : Lavf52.39.1

Video
ID                             : 0
Format                         : MPEG-4 Visual
Format profile                 : Advanced Simple@L1
Format settings, BVOP          : 2
Format settings, QPel          : No
Format settings, GMC           : No warppoints
Format settings, Matrix        : Default (H.263)
Codec ID                       : divx
Codec ID/Info                  : Mainly used by Google
Codec ID/Hint                  : DivX
Duration                       : 43mn 38s
Bit rate                       : 987 Kbps
Width                          : 640 pixels
Height                         : 480 pixels
Display aspect ratio           : 4:3
Frame rate                     : 25.000 fps
Color space                    : YUV
Chroma subsampling             : 4:2:0
Bit depth                      : 8 bits
Scan type                      : Progressive
Compression mode               : Lossy
Bits/(Pixel*Frame)             : 0.128
Stream size                    : 308 MiB (93%)
Writing library                : Lavc52.37.0

Audio
ID                             : 1
Format                         : MPEG Audio
Format version                 : Version 1
Format profile                 : Layer 3
Mode                           : Joint stereo
Mode extension                 : MS Stereo
Codec ID                       : 55
Codec ID/Hint                  : MP3
Duration                       : 43mn 38s
Bit rate mode                  : Constant
Bit rate                       : 64.0 Kbps
Channel(s)                     : 2 channels
Sampling rate                  : 44.1 KHz
Compression mode               : Lossy
Stream size                    : 20.0 MiB (6%)
Alignment                      : Aligned on interleaves
Interleave, duration           : 26 ms (0.65 video frame)
Writing library                : LAMEUUULAME3.96.1




===========================================================================

Thumbnails..-
 
http://bayimg.com/bAnBPaaDK


===========================================================================


 
http://thepiratebay.se/user/clueman7